<svg id="Graphic_elements" data-name="Graphic elements" xmlns="http://www.w3.org/2000/svg" viewBox="0 0 1200 1200"><defs><style>.cls-1{fill:none;}.cls-2{fill:#1a1a1a;}.cls-3{fill:#fff;}.cls-4{fill:#fefefe;}.cls-5{fill:#fdfdfd;}.cls-6{fill:#fcfcfc;}.cls-7{fill:#151515;}.cls-8{fill:#fbfbfb;}.cls-9{fill:#171717;}</style></defs><path class="cls-1" d="M879.55,1015.38a71.82,71.82,0,0,0,3.74,7.17c1.27-9.4,2.79-18.82,4.6-28.2-1.81,9.38-3.33,18.8-4.6,28.2A71.82,71.82,0,0,1,879.55,1015.38Z"/><path class="cls-1" d="M919.64,944.38c6-16.16,13.5-31.73,23.53-45.8C933.14,912.65,925.64,928.22,919.64,944.38Z"/><path class="cls-1" d="M979.79,867.8c6.17,6.25,11,14.09,11.92,23,2.6,22.51-5.24,44.51-13.53,65.08-10,24.08-23.32,47.22-41.89,65.72h0c18.57-18.5,31.9-41.65,41.89-65.73,8.29-20.56,16.13-42.56,13.53-65.08-.89-8.93-5.75-16.78-11.91-23q-2.84,1.17-5.53,2.57Q977,869,979.79,867.8Z"/><path class="cls-1" d="M895.12,963.71c-1.25,4.41-2.4,8.85-3.48,13.31C892.72,972.56,893.87,968.12,895.12,963.71Z"/><path class="cls-1" d="M935.05,1022.79a65.79,65.79,0,0,1-10.76,8.45A65.79,65.79,0,0,0,935.05,1022.79Z"/><path class="cls-1" d="M871.58,976.26c-.11-4.48,0-9,.25-13.39C871.6,967.31,871.47,971.78,871.58,976.26Z"/><path class="cls-1" d="M839.92,613.87c6.06-4.54,13-8.37,17.34-14.47C853,605.49,846,609.33,839.92,613.87Z"/><path class="cls-1" d="M837.39,615.87c-14.16,10.3-28.72,20.14-43.84,29C808.67,636,823.23,626.17,837.39,615.87Z"/><path class="cls-1" d="M776.21,526.44c12.14-3.79,20.81-13.44,31.2-20.25C797,513,788.35,522.65,776.21,526.44Z"/><path class="cls-1" d="M788.73,766.61a15.22,15.22,0,0,1,9.67-1.5h0A15.23,15.23,0,0,0,788.73,766.61Z"/><path class="cls-1" d="M552.51,865.83c19.84,18.29,35.37,41.24,48.56,64.65h0C587.88,907.07,572.35,884.12,552.51,865.83Z"/><path class="cls-1" d="M487.85,799.61c28.34,4.57,57.08,6.12,85.74,7.77,18.46.27,37.18,2.8,55.44-1.12,34.14-6.09,68.24-12.7,101.91-21.19,13.77-3.82,27.74-7.24,41.28-11.92-13.54,4.68-27.51,8.1-41.29,11.92-33.67,8.49-67.76,15.1-101.9,21.19-18.26,3.92-37,1.39-55.45,1.12-28.65-1.66-57.39-3.2-85.73-7.77-11.74,4.79-19.31,15.93-26.57,25.83h0C468.54,815.54,476.11,804.4,487.85,799.61Z"/><path class="cls-1" d="M893.17,446.62h0c12.77,9.59,25.38,20.07,33.6,34,10.48,17.74,13.89,38.42,18.7,58.18-13.1,8.26-26.16,16.64-39.25,24.93-14.13,9-26.9,19.91-40.2,30h0c13.3-10.13,26.07-21,40.21-30,13.08-8.29,26.14-16.67,39.25-24.93-4.82-19.76-8.23-40.44-18.71-58.18C918.55,466.69,905.94,456.21,893.17,446.62Z"/><path class="cls-1" d="M807.32,948.87a73,73,0,0,1,4.36-13.36,73,73,0,0,0-4.36,13.36c18.53,12.39,35.51,27.2,49.44,44.69h0C842.83,976.07,825.85,961.26,807.32,948.87Z"/><path class="cls-1" d="M836.79,544.46a91.52,91.52,0,0,1,4.58,10.31A91.52,91.52,0,0,0,836.79,544.46Z"/><path class="cls-1" d="M807.41,506.19c5.23,5.29,10.34,10.79,15.06,16.59C817.75,517,812.64,511.48,807.41,506.19Z"/><path class="cls-1" d="M766.67,814.74a139,139,0,0,1,8.14-13A139,139,0,0,0,766.67,814.74Z"/><path class="cls-1" d="M858.53,815.29q3.53,4.49,6.88,9.12Q862.07,819.78,858.53,815.29Z"/><path class="cls-1" d="M900.29,887.18c-17.21,19.88-25.7,46-28.2,71.85C874.59,933.16,883.08,907.06,900.29,887.18Z"/><path class="cls-1" d="M928.36,890.51c-15,21.72-25.35,45.91-32.65,71.09,7.3-25.18,17.64-49.37,32.65-71.09,7.17-10.58,16.51-19.3,26.17-27.55C944.87,871.21,935.53,879.93,928.36,890.51Z"/><path class="cls-1" d="M743,919.37a22.63,22.63,0,0,0,1.48,3.11c18.12,6.18,36.52,12.12,53.27,21.62h0c-16.75-9.5-35.14-15.44-53.27-21.62A22.63,22.63,0,0,1,743,919.37Z"/><path class="cls-1" d="M741.6,895.49c2.62-25.72,10.41-50.74,21.53-74,1.12-2.25,2.3-4.5,3.54-6.73-1.24,2.23-2.42,4.48-3.55,6.73-11.11,23.28-18.9,48.3-21.52,74-.37,5.57-1,11.57-.25,17.26C740.62,907.06,741.23,901.06,741.6,895.49Z"/><path class="cls-1" d="M800.29,936.35c11.58-30.3,38-52.55,67.9-64.86C838.31,883.8,811.87,906.05,800.29,936.35Z"/><path class="cls-1" d="M484.82,646l0,.06Z"/><path class="cls-1" d="M492.94,775.32a52.84,52.84,0,0,0,2.73,6,52.84,52.84,0,0,1-2.73-6c-5.69-16.28-9-33.26-12.35-50.15-8.15-43.31-13.37-87.08-19.53-130.67,14.58,9.07,31.54,13,48.45,14.78-16.91-1.75-33.87-5.71-48.45-14.78,6.16,43.59,11.38,87.36,19.53,130.67C483.91,742.06,487.24,759,492.94,775.32Z"/><path class="cls-1" d="M315.55,1027.92a45.53,45.53,0,0,1,1-6.9A46.82,46.82,0,0,0,315.55,1027.92Z"/><path class="cls-1" d="M359.63,1105.7l-1.49-1.26Z"/><path class="cls-1" d="M318.31,1048.74a53.62,53.62,0,0,1-2.42-10.29A53.62,53.62,0,0,0,318.31,1048.74Z"/><path class="cls-1" d="M928,427.28c3.11-1.53,6.25-3,9.43-4.4C934.28,424.26,931.14,425.75,928,427.28Z"/><path class="cls-1" d="M572.8,761.1c-17.79,4.1-36.23,2.69-54.26,1.38-7.86-25.13-12.46-51.06-17.2-76.93,4.74,25.87,9.34,51.8,17.2,76.94,18,1.3,36.47,2.71,54.26-1.39,4.68-1.25,11.34-3.57,12-8.85C584.14,757.53,577.48,759.84,572.8,761.1Z"/><path class="cls-1" d="M425.59,922.19c-.78-.14-1.56-.25-2.34-.36C424,921.94,424.81,922.05,425.59,922.19Z"/><path class="cls-1" d="M429.63,923.1c-.86-.22-1.73-.4-2.6-.59C427.9,922.7,428.77,922.88,429.63,923.1Z"/><path class="cls-1" d="M448.34,943.25a57.7,57.7,0,0,0-28.83-11.77,57.63,57.63,0,0,1,28.82,11.77c25.27,18.44,42.05,45.52,59.23,71.08-12.43,18.19-23.05,37.47-33,57.07h0c10-19.6,20.58-38.89,33-57.08C490.39,988.77,473.61,961.69,448.34,943.25Z"/><path class="cls-1" d="M403,946.64q2.91-7.62,5.94-15.2Q405.92,939,403,946.64Z"/><path class="cls-1" d="M350.31,987.59c1.61-.1,3.21-.13,4.81-.08C353.52,987.46,351.92,987.49,350.31,987.59Z"/><path class="cls-1" d="M382.34,995.85a56.51,56.51,0,0,0-22.45-8,56.51,56.51,0,0,1,22.45,8c24.89,14.65,43.68,37.21,61,59.9,6.48,9.32,13.85,18.15,19.15,28.23-.87,11.89-4,23.74-10.16,34h0c6.16-10.28,9.29-22.13,10.17-34-5.31-10.08-12.68-18.9-19.16-28.22C426,1033.05,407.23,1010.5,382.34,995.85Z"/><path class="cls-1" d="M814.76,929.2a84.21,84.21,0,0,1,7.74-11.72A84.21,84.21,0,0,0,814.76,929.2Z"/><path class="cls-1" d="M886.94,875.84c-2.24.74-4.47,1.53-6.68,2.35,2.21-.82,4.44-1.61,6.68-2.35Z"/><path class="cls-1" d="M506.16,847.3c-3.37-1.48-6.8-2.74-10.27-3.88,3.47,1.14,6.9,2.4,10.26,3.88,23.61,9.52,41.74,28.45,57,48.21,9.72,12.9,19.58,25.74,28.29,39.38-31.18,17.9-57.86,43.1-78.63,72.38h0c20.77-29.28,47.45-54.48,78.63-72.38-8.71-13.64-18.57-26.48-28.29-39.38C547.89,875.75,529.77,856.82,506.16,847.3Z"/><path class="cls-1" d="M421.48,921.55a60.71,60.71,0,0,0-7.77-.43A60.71,60.71,0,0,1,421.48,921.55Z"/><path class="cls-1" d="M316.55,1021a42.58,42.58,0,0,1,5.09-12.89A42.58,42.58,0,0,0,316.55,1021Z"/><path class="cls-1" d="M328.3,999.83h0a89.54,89.54,0,0,1,25.84,13.93A89.54,89.54,0,0,0,328.3,999.83Z"/><path class="cls-1" d="M315.55,1027.92a51.39,51.39,0,0,0,0,7A51.39,51.39,0,0,1,315.55,1027.92Z"/><path class="cls-1" d="M367.85,1002.89a257.29,257.29,0,0,0-22.34-14.75A257.29,257.29,0,0,1,367.85,1002.89Z"/><path class="cls-1" d="M380.16,1038.4c.7.78,1.42,1.56,2.11,2.34,23.21,27,41.65,57.71,57.51,89.45-17.47,7.72-36.9,2.39-53-6.18,16.14,8.57,35.57,13.9,53,6.18-15.86-31.74-34.3-62.48-57.51-89.45C381.58,1040,380.86,1039.18,380.16,1038.4Z"/><path class="cls-1" d="M1099.24,362.27c-2.62-13.44-12.16-23.72-19.69-34.58-6.07-8.05-11.65-16.71-19.58-23.05-4.57-3.74-11.09-5.65-16.62-3.07-11.44,4.87-19.48,14.82-28.63,23.05,9.15-8.23,17.19-18.18,28.63-23.05,5.53-2.58,12.05-.67,16.62,3.07,7.93,6.34,13.51,15,19.58,23.05,7.52,10.86,17.07,21.15,19.69,34.59,1.85,8.39.3,16.78-3,24.55C1099.55,379.06,1101.1,370.67,1099.24,362.27Z"/><path class="cls-1" d="M985,417.75a19.12,19.12,0,0,0-12.33-4.55A19.09,19.09,0,0,1,985,417.75c11.76,9.45,23.35,21.12,26.71,36.4,3.31,13.08-2.31,26.55-9.93,37.05-12.59,17.05-30,29.62-47.31,41.53h0c17.27-11.92,34.72-24.49,47.31-41.54,7.62-10.5,13.24-24,9.93-37.05C1008.36,438.87,996.78,427.2,985,417.75Z"/><path class="cls-1" d="M962.59,414.19a48.9,48.9,0,0,1,6.08-.87A48.9,48.9,0,0,0,962.59,414.19Z"/><path class="cls-1" d="M1010.35,417.44a101.35,101.35,0,0,1,12.9,17.44A101.35,101.35,0,0,0,1010.35,417.44Z"/><path class="cls-1" d="M987,315a46.76,46.76,0,0,1,5.35,11.29,47,47,0,0,0-5.35-11.3c-3.5-5-9.28-7.57-14.7-9.81h0C977.73,307.37,983.51,309.9,987,315Z"/><path class="cls-1" d="M713,92.56a174.71,174.71,0,0,1,2.69,30.79A174.71,174.71,0,0,0,713,92.56Z"/><path class="cls-1" d="M208,529.31c.47-2.77,1-5.51,1.67-8.24-.63,2.73-1.2,5.47-1.67,8.24Z"/><path class="cls-1" d="M821.39,288.26a174.24,174.24,0,0,0,5.11,59.56,174.2,174.2,0,0,1-5.11-59.55c1.1-14.94,8.22-31.07,23.45-36.16h0C829.61,257.19,822.49,273.32,821.39,288.26Z"/><path class="cls-1" d="M813.54,374c.68,17.11-2.36,34.41-2.08,51.5C811.18,408.45,814.22,391.15,813.54,374Z"/><path class="cls-1" d="M825.56,397.92l-.3,3.9.3-3.9c.31-8.2,6-14.58,11.53-20h0C831.54,383.34,825.87,389.72,825.56,397.92Z"/><path class="cls-1" d="M838.42,303.68c0-1.7-.08-3.44-.11-5.21C838.34,300.24,838.39,302,838.42,303.68Z"/><path class="cls-1" d="M496.56,648.87c13.87.89,27.38-3,41-5.29-13.58,2.24-27.09,6.18-41,5.28-3.6-1.92-6.65-7.84-11-4h0C489.91,641,493,646.94,496.56,648.87Z"/><path class="cls-1" d="M838.88,285.54a81.9,81.9,0,0,0-.57,12.93A81.9,81.9,0,0,1,838.88,285.54Z"/><path class="cls-1" d="M851.66,370.61c-1.9-4.93-3.53-10-4.95-15,1.42,5.08,3,10.11,4.95,15a36.89,36.89,0,0,0,15.85-30.16A36.89,36.89,0,0,1,851.66,370.61Z"/><path class="cls-1" d="M747.07,97c-11.8-5.48-24.47-9.49-36.32-14.6C722.6,87.55,735.27,91.56,747.07,97Z"/><path class="cls-1" d="M812.05,435.4A78.8,78.8,0,0,0,815,450a83.53,83.53,0,0,0,3.88-10A82.74,82.74,0,0,1,815,450,78.54,78.54,0,0,1,812.05,435.4Z"/><path class="cls-1" d="M342.2,294.07h0c8,19.42,10.23,40.66,11.64,61.44.54,14.74.61,29.75-3,44.16h0c3.65-14.4,3.58-29.41,3.05-44.15C352.43,334.73,350.22,313.49,342.2,294.07Z"/><path class="cls-1" d="M378.51,210.78c12.26-29.57,28.66-57.77,51-80.84C407.16,153,390.77,181.21,378.51,210.78Z"/><path class="cls-1" d="M377.79,243.17c1.79-18.53,6-38.15,19-52.22a43.26,43.26,0,0,1,5.25-4.64,43.26,43.26,0,0,0-5.25,4.64c-13,14.07-17.23,33.7-19,52.22-3.27,49.13,9,97.29,14.63,145.79,2.8,23.34,1.48,46.93-.05,70.34h0c1.53-23.41,2.85-47,.05-70.34C386.82,340.46,374.52,292.3,377.79,243.17Z"/><path class="cls-1" d="M448.63,177.11c-8.81-15.51-13-33-16-50.45h0c3,17.4,7.19,34.94,16,50.45Z"/><path class="cls-1" d="M327.85,309.06a92.46,92.46,0,0,0-7.14,7.41A92.46,92.46,0,0,1,327.85,309.06Z"/><path class="cls-1" d="M563.48,203.07h0c25.36-.25,50.43-5,75.25-9.77q4.56-1,9.15-2.07-4.59,1.07-9.16,2.07C613.9,198.09,588.83,202.82,563.48,203.07Z"/><path class="cls-1" d="M696.86,155.82c-1.14,6.21-.76,12.75-2.92,18.73-2.86,1.71-5.83,3.21-8.83,4.63,3-1.42,6-2.92,8.84-4.63,2.15-6,1.77-12.52,2.91-18.73,3-27.17,4.61-56-6.88-81.61a211,211,0,0,0-41.11-6.74h0A211.85,211.85,0,0,1,690,74.21C701.47,99.8,699.84,128.65,696.86,155.82Z"/><path class="cls-1" d="M772.55,170.9c-5.91-8.27-14.31-16.85-25.29-16.33-12.07,1.07-23.63,5.26-34.7,10h0c11.07-4.71,22.63-8.9,34.7-10,11-.51,19.38,8.06,25.29,16.33,10,15,15.66,32.3,20.37,49.53.71,2.72,1.32,5.45,2,8.18-.67-2.73-1.28-5.47-2-8.18C788.21,203.2,782.52,185.88,772.55,170.9Z"/><path class="cls-1" d="M839.06,284.47c.13-.8.29-1.6.48-2.38C839.35,282.87,839.19,283.67,839.06,284.47Z"/><path class="cls-1" d="M767.93,755.42c-12.1,3.89-24.32,7.42-36.53,11C743.61,762.84,755.83,759.31,767.93,755.42Z"/><path class="cls-1" d="M687.56,587.62a4.63,4.63,0,0,0-3.44-3.16,4.63,4.63,0,0,1,3.44,3.16c4.93,9.41,7.46,19.87,10.33,30.09C710,667.28,716.44,718,724.77,768.31h0c-8.33-50.31-14.76-101-26.88-150.6C695,607.49,692.49,597,687.56,587.62Z"/><path class="cls-1" d="M618,572.61q-9,.28-18,.18Q609,572.88,618,572.61Z"/><path class="cls-1" d="M759.87,537.24a238.79,238.79,0,0,1-53.94,22.22,238.79,238.79,0,0,0,53.94-22.22Z"/><path class="cls-1" d="M641.77,675.54l-.33.12.33-.11Z"/><path class="cls-1" d="M651.31,647.16a10.84,10.84,0,0,1-3,3.74,11,11,0,0,0,3-3.74c3.16-6.45,1.3-14.67-3.52-19.78-4.49-4.29-9.27-10.2-15.75-9.9,6.48-.3,11.26,5.61,15.75,9.9C652.62,632.49,654.47,640.71,651.31,647.16Z"/><path class="cls-1" d="M574.41,641.9c6.18,3.74,7,12,9.07,18.39a518.9,518.9,0,0,1,11.61,89.54c1,6.79-2.78,13.08-8.33,16.68,5.55-3.6,9.36-9.89,8.33-16.68a519.86,519.86,0,0,0-11.6-89.54c-2.06-6.39-2.89-14.65-9.08-18.4a134.14,134.14,0,0,0-26.95.46A133.41,133.41,0,0,1,574.41,641.9Z"/><path class="cls-1" d="M629.16,618c-5.54,2.34-9.32,7.22-11.24,12.81C619.84,625.24,623.62,620.36,629.16,618Z"/><path class="cls-1" d="M632.7,646.37c3.48-.25,7.54-3,10.69-4.16a13.64,13.64,0,0,0-2.95-7,13.72,13.72,0,0,1,2.95,7C640.24,643.33,636.18,646.12,632.7,646.37Z"/><path class="cls-1" d="M618,572.61c12-.37,24-1.26,35.9-2.76C641.94,571.35,630,572.24,618,572.61Z"/><path class="cls-1" d="M685.89,612.46c2.21,8.6,4,17.3,5.72,26C689.9,629.76,688.1,621.06,685.89,612.46Z"/><path class="cls-1" d="M680.06,593.33c-45.49,9.45-91.82,17-138.33,17.14,46.51-.11,92.84-7.69,138.33-17.14Z"/><path class="cls-1" d="M468.63,586.84c16.37,9.54,35.86,10.77,54.34,12.21,42,1.19,83.72-4.16,125.23-10.22C606.69,594.89,565,600.24,523,599.05c-18.49-1.44-38-2.67-54.35-12.21-4.23-3-9.74-6.48-10-12.19-1-9.85-2.53-19.65-3.25-29.52h0c.72,9.88,2.29,19.67,3.25,29.53C458.88,580.36,464.39,583.81,468.63,586.84Z"/><path class="cls-1" d="M628.33,712c-3.36-7.42-2.9-16.59.64-24.15-3.54,7.56-4,16.73-.64,24.15,3.19,5.31,8.69,7.08,14.46,7C637,719.05,631.52,717.28,628.33,712Z"/><path class="cls-1" d="M647.77,708.86a16.7,16.7,0,0,1-13.57-10.8,6.25,6.25,0,0,1,.61-4.85,6.25,6.25,0,0,0-.61,4.85A16.7,16.7,0,0,0,647.77,708.86Z"/><path class="cls-1" d="M655.5,692.28h0q-4.56,1-9,2.08h0C649.46,693.63,652.46,692.93,655.5,692.28Z"/><path class="cls-1" d="M560.08,555.3c55,5.42,111.85.74,163.46-19.9,33-12.9,63.6-34.74,82.33-65.34-4.64-8.36-8.31-17.3-9.86-26.73-4.72-25.38,3-50.94.27-76.43-4.19-52.89-9.94-106.1-24.66-157.24-.82-2.6-1.65-5.2-2.53-7.79.87,2.58,1.71,5.19,2.52,7.78C786.33,260.8,792.09,314,796.28,366.89c2.69,25.5-5,51.06-.27,76.44,1.54,9.43,5.22,18.37,9.85,26.72-18.72,30.6-49.28,52.45-82.32,65.35C671.93,556,615.05,560.71,560.07,555.29c-30.51-3.13-60.78-10.1-89.07-22.11-7-3.11-14.36-6.12-19.56-11.92-3.4-3.74-8.87-4.39-12.36-7.91a287.15,287.15,0,0,1-29.77-33.17h0a288.08,288.08,0,0,0,29.77,33.18c3.5,3.51,9,4.16,12.37,7.91,5.19,5.8,12.59,8.8,19.56,11.92C499.3,545.19,529.56,552.16,560.08,555.3Z"/><path class="cls-1" d="M220.26,418.22c3.16,19.13,5.38,38.44,7,57.77h0c-1.63-19.33-3.85-38.65-7-57.78-2-10.77-3.81-21.91-9.56-31.43a15.56,15.56,0,0,0-8.84,5.06,15.5,15.5,0,0,1,8.83-5C216.45,396.31,218.27,407.44,220.26,418.22Z"/><path class="cls-1" d="M675.46,201.39a461.2,461.2,0,0,0,68.22-29A461.2,461.2,0,0,1,675.46,201.39Z"/><path class="cls-1" d="M714.89,199.67a37.37,37.37,0,0,0,9.11-4.32A37.37,37.37,0,0,1,714.89,199.67Z"/><path class="cls-1" d="M401.18,526.73c-5.08,26.84-10.29,53.91-9.52,81.28-.77-27.37,4.44-54.44,9.52-81.28Z"/><path class="cls-1" d="M769.8,211.87c9.63,19.25,7.08,41.45,12.16,61.88,3.57,36.74,2.65,73.77,2.74,110.64.24,14.56-6.48,28.12-6.55,42.68-1,14.27,4.39,27.75,8.54,41.13,2,6.16,3.11,13.93-1.75,19.13h0c4.86-5.19,3.72-13,1.75-19.13-4.15-13.37-9.5-26.86-8.54-41.13.07-14.56,6.79-28.11,6.54-42.68-.09-36.87.83-73.9-2.73-110.64-5.09-20.43-2.53-42.63-12.16-61.87-6.1-11.11-8.47-26.25-20.37-32.78-9.78,3.1-16.93,10.88-25.44,16.26,8.51-5.38,15.66-13.16,25.44-16.25C761.33,185.62,763.71,200.76,769.8,211.87Z"/><path class="cls-1" d="M484.62,223.5c29.86,6.46,60.69,6.37,91.11,5.69,26.26.05,51.08-10.19,77.13-11.93a190.51,190.51,0,0,0,26.32-5.84,190.48,190.48,0,0,1-26.32,5.83c-26.05,1.75-50.87,12-77.13,11.94-30.42.67-61.24.76-91.1-5.69-12-1.79-24.06-3.27-35.53-7.26-10.82-4-22.49-4.16-33.81-5.51h0c11.31,1.34,23,1.52,33.8,5.51C460.56,220.23,472.66,221.71,484.62,223.5Z"/><path class="cls-1" d="M160.06,409.44a111.5,111.5,0,0,1,9.79,5.56c-3.31-1.92-6.54-4.12-9.78-5.57C149.6,404,137,408.31,129,416a85.73,85.73,0,0,0-20.24,29.66A85.73,85.73,0,0,1,129,416C137,408.32,149.6,404,160.06,409.44Z"/><path class="cls-1" d="M226.2,541.45c1.38-16.58,6-32.73,11.71-48.3-5.69,15.57-10.33,31.72-11.72,48.3-1.09,14,2.67,29.5,13.83,38.84,12.59,11,29.39,14.65,45,19.11h0c-15.65-4.46-32.45-8.11-45-19.11C228.87,571,225.1,555.47,226.2,541.45Z"/><path class="cls-1" d="M448.76,633.74h0c-18.55-5.62-37.53-9.61-56.39-14C411.24,624.14,430.21,628.12,448.76,633.74Z"/><path class="cls-1" d="M316.74,500.25c-2.15,4.83-4.31,9.67-6.36,14.55,2.05-4.88,4.21-9.72,6.37-14.55Z"/><path class="cls-1" d="M296.73,574.68c-.59,8.91-.86,17.86-1.18,26.74,28.86,5.75,58,9.81,86.7,16.53h0c-28.68-6.72-57.84-10.78-86.69-16.53C295.87,592.54,296.14,583.59,296.73,574.68Z"/><path class="cls-1" d="M811.94,434.14c-.26-2.85-.43-5.71-.48-8.57C811.51,428.43,811.68,431.29,811.94,434.14Z"/><path class="cls-2" d="M1104.93,333.78a332.29,332.29,0,0,0-28.88-36.24c-8.87-9.16-21.46-17.63-34.76-13.4-15,5.27-26.44,17.14-37.26,28.32-6.27-11.2-16.46-20.27-28.74-24.22-4.86-1.81-11-1-14.18,3.43-5.31,7.37-5.73,16.85-5.71,25.61-.76,26.94,4.91,53.53,10.86,79.66a170.63,170.63,0,0,0-41.44,12.88c-35.17,16.24-67.48,38-98.75,60.66a159.45,159.45,0,0,0,15.3-56.81c1.12-6.72-.81-14.69,4.24-20.16,10.66-9.52,25.8-14.56,32.7-27.91,9.59-18.33,5.47-40,.61-59.1-13.31-46.64-27.71-93.28-48.73-137.1-16.73-33.2-37.52-67.36-71.26-85.51-16.8-7.3-34-13.68-50.78-21-20.95-9.1-44-10.86-66.49-12.68-6.85-1.14-13,3-19.83,2.58-53.49,1.85-109.14,5.53-157.37,31.12-10.46,4.88-19.17,12.79-29.83,17.25-3.79,2-5.61,6.34-8.81,9.07-18.95,17.14-36,36.67-48.52,59.07-20.39,36.34-23.66,80.56-49.24,114.23-5.78,8.33-14.14,14.31-20.43,22.15-10.76,15.53-5.45,35.46.67,51.73,16.55,40.88,45.21,75.11,71.39,110.08,11.83,16.31,23.62,32.82,37.91,47.11-56.57-19-113.69-41.69-174.11-42.79-1.72-15.68-2.75-31.43-4.84-47-2.3-16.08-4.27-33.13-13.5-46.95-4.15-6.84-13.56-8.16-20.34-4.75-11.61,5.87-19.56,16.62-27.36,26.66-6.56-4.49-13.53-9-21.66-9.59-15.84-1.59-30.54,7.26-41.6,17.81-18.42,17.87-26.64,43.5-30.09,68.32-1.88,19-1.65,40.53,11.43,55.9,9,11,23.88,13.69,37.3,14.65,24.46,3.83,49.24,2,73.66-1.15.17,16.61,6.67,33.25,19.73,43.91,22.36,18.67,51.93,24.31,79.62,30.31,48.76,9.32,97.31,19.67,145.72,30.7,2.89,24.66,7.35,49.12,11.92,73.54,4.19,20.5,8.15,41.15,15.19,60.91-21.44,12.14-34.88,33.78-47.14,54.39-23.77,42.92-41.13,89.16-54.73,136.23-6.27-2.06-12.59-4.3-19.22-4.32-27.42-2.76-51.21,20.29-57.95,45.4-5.69,24.8,4.7,49.85,18.86,69.83,19.58,26.39,46.37,48.36,77.85,58.8,18.52,6.28,40.21,7.22,57.28-3.69,13.31-9.53,19.89-25.48,23.27-41,3.05-1.59,8-2,8-6.39,1.06-7.57,4.57-14.33,8-21,24.73-50.09,59.45-98.71,110.24-124.8,37.75-20.35,83-23,124.17-12.88,35.71,9.2,71.17,23.7,98.32,49.28,16.27,15.19,29.08,33.58,44.94,49.13,6.41,7.64,12.86,16.62,23.14,19.11,10.62,2.55,22.36,1.61,32.08-3.65,21.94-11.68,38.24-31.39,51.1-52.22,19.67-32.33,36.18-69.61,32-108.29-1.57-15-11.78-26.51-20.77-37.69-16.69-2.64-33.73-11.76-50.69-5.6a100.48,100.48,0,0,0-30,12.88c-18.42-30-38.38-59.56-63.89-84.09-12.5-11.65-26.59-22.2-43-27.51,6.79-27.89,2.89-56.84-3-84.5,32.63-19.2,62.85-42.07,92.42-65.64,35.91-28.81,78.25-49.06,111.59-81.14,14.42-13.95,27.64-31.21,29.23-51.93,15.1-7.34,30.11-15.09,43.31-25.6,18-13.53,34.56-31.09,40.66-53.32C1119.81,367.43,1115,348.41,1104.93,333.78ZM848.81,267.72c8.38,21.73,16,44.31,18.39,67.61a37.22,37.22,0,0,1-15.54,35.28c-1.9-4.93-3.53-10-4.95-15-4.51-16.08-6.85-32.78-8.25-49.39,0-.82,0-1.66,0-2.5,0-1.7-.08-3.44-.11-5.21a81.9,81.9,0,0,1,.57-12.93c0-.36.12-.71.18-1.07.13-.8.29-1.6.48-2.38C840.87,276.43,843.54,271.33,848.81,267.72ZM773,114.45c23.44,23.18,38.58,53.18,51.44,83.18,7.71,17.81,14.29,36.06,20.38,54.48h0c-15.23,5.09-22.35,21.22-23.45,36.16a174.2,174.2,0,0,0,5.11,59.55,186.14,186.14,0,0,0,10.59,30.12h0c-5.55,5.4-11.22,11.78-11.53,20l-.3,3.9c-1,12.89-2.41,25.92-6.4,38.22A83.53,83.53,0,0,1,815,450a78.8,78.8,0,0,1-2.93-14.61c0-.42-.06-.84-.11-1.26-.26-2.85-.43-5.71-.48-8.57v0c-.28-17.09,2.76-34.39,2.08-51.5,0-1-.06-1.94-.13-2.91-1.9-47.9-7.07-95.9-18.5-142.52-.67-2.73-1.28-5.46-2-8.18-4.71-17.23-10.4-34.54-20.37-49.53-5.91-8.27-14.31-16.84-25.29-16.33-12.07,1.07-23.63,5.26-34.7,10h0a295.59,295.59,0,0,0,3.12-41.19A174.71,174.71,0,0,0,713,92.56q-.94-5.09-2.24-10.12c11.85,5.11,24.52,9.12,36.32,14.6C756.57,101.45,765.51,106.8,773,114.45ZM540.8,76.94C551.85,75,563,73.66,574,72.6c24.87-3.11,50.1-1.93,74.89-5.13h0A211,211,0,0,1,690,74.21c11.49,25.59,9.86,54.44,6.88,81.61-1.14,6.21-.76,12.75-2.91,18.73-2.87,1.71-5.84,3.21-8.84,4.63-11.79,5.56-24.49,9.09-37.23,12q-4.59,1.07-9.15,2.07c-24.82,4.79-49.89,9.52-75.25,9.77h0c-27.4.22-53.25-9.77-79.26-17-4.48-1.41-9.16-2.33-13.31-4.48-10.84-21.19-22.82-43.46-22.58-67.79C475.17,93,507.65,82.64,540.8,76.94Zm-190,322.73h0a282.29,282.29,0,0,1-27.55-52.62c-3.22-9.64-7-20.79-2.53-30.58a92.46,92.46,0,0,1,7.14-7.41c5-4.79,10.21-9.38,14.34-15h0c8,19.42,10.23,40.66,11.65,61.45C354.38,370.26,354.45,385.27,350.8,399.67Zm41.57,59.63h0c-10.24-13.71-20.88-27.21-29.86-41.75-.22-5.81,3.76-11.16,4.59-17,5.4-25.83,4.64-52.6.7-78.59-2.31-15.07-6.63-30.17-15.57-42.72,6.8-13.75,11.39-28.36,16.35-42.83,3-8.69,6.11-17.32,9.93-25.67,12.26-29.57,28.65-57.78,51-80.84,1.05-1.09,2-2.22,3.12-3.28h0c3,17.41,7.19,34.94,16,50.45h0c-15.79-2.53-33.57-.51-46.56,9.2a43.26,43.26,0,0,0-5.25,4.64c-13,14.07-17.23,33.69-19,52.22-3.27,49.13,9,97.29,14.63,145.79C395.22,412.3,393.9,435.89,392.37,459.3ZM208,529.31h0c-22.22,1.66-44.57,4.26-66.87,1.57-11.08-1.48-24.26-.52-32.28-9.86-9.23-11-10.39-26.59-9-40.34a128.18,128.18,0,0,1,8.9-35A85.73,85.73,0,0,1,129,416c8-7.69,20.61-12,31.08-6.57,3.24,1.45,6.47,3.65,9.78,5.57,5.2,3,10.62,5.36,16.65,3a17.82,17.82,0,0,0,1.88-1.69c6.38-6.62,7.55-17.83,13.48-24.51a15.56,15.56,0,0,1,8.84-5.06c5.75,9.52,7.57,20.66,9.56,31.43,3.16,19.13,5.38,38.45,7,57.78h0a177.66,177.66,0,0,0-17.59,45.08C209.05,523.8,208.48,526.54,208,529.31Zm77.06,70.09h0c-15.65-4.46-32.45-8.11-45-19.11-11.16-9.34-14.92-24.82-13.83-38.84,1.39-16.58,6-32.73,11.72-48.3a6.2,6.2,0,0,1,.7-1.72c2.14-3.46,7.54-3.34,11.29-3.66,19.35.2,38.06,5.6,56.85,9.66-7.64,16.51-15,33.44-17.51,51.59C286.19,565.66,286.91,582.64,285.07,599.4ZM382.25,618c-28.68-6.72-57.84-10.78-86.7-16.53.32-8.88.59-17.83,1.18-26.74.95-14.2,2.75-28.31,7.09-41.92a175.14,175.14,0,0,1,6.56-18c2.05-4.88,4.21-9.72,6.36-14.55h0c25.22,7.06,50.42,14.4,75,23.46-6.12,31-13,62.41-9.52,94.24Zm66.51,15.79c-18.55-5.62-37.52-9.6-56.39-14-.37-3.93-.6-7.84-.71-11.76-.77-27.37,4.44-54.44,9.52-81.28h0c12.14,4.44,24.33,8.85,36.56,13.13q5.47,46.93,11,93.88Zm2.69-112.47c-3.41-3.75-8.87-4.4-12.37-7.91a288.08,288.08,0,0,1-29.77-33.18h0c-1.35-26.68,3.76-53.45,1-80.16-4.75-54.39-20.25-108.15-15.64-163.13,1.66-13.24,5-27.93,16.27-36.42,9.36-7.75,22.37-6.48,33.67-5.49,25.27,4.21,49.12,14.11,74.19,19.26,23.55,5.36,47.85,4.39,71.8,3.65,29-1.48,57.41-7.46,84.9-16.5a461.2,461.2,0,0,0,68.22-29,7,7,0,0,1,4.24-1.32c4.18.11,8.05,4,10.39,7.43,4.76,7.2,8,15.22,10.78,23.38.88,2.59,1.71,5.19,2.53,7.79C786.34,260.8,792.09,314,796.28,366.9c2.69,25.49-5,51.05-.27,76.43,1.55,9.43,5.22,18.37,9.86,26.73-18.73,30.6-49.29,52.44-82.33,65.34C671.93,556,615.05,560.72,560.08,555.3c-30.52-3.14-60.78-10.11-89.07-22.11C464,530.07,456.64,527.07,451.45,521.27Zm4,23.85h0C477.59,558,503,563.79,528.13,567.28A584.76,584.76,0,0,0,600,572.79q9,.09,18-.18c12-.37,24-1.26,35.9-2.76q8.94-1.14,17.83-2.73a332.21,332.21,0,0,0,34.23-7.66,238.79,238.79,0,0,0,53.94-22.22h0c3.38,30.17,7.57,60.28,13.08,90.19,2,10.75,5.11,21.32,5.87,32.3,8,24.93,10.77,52.06,5.87,77.94-.72,6.27-4.84,11.42-9.46,15.39-2.42.82-4.87,1.58-7.31,2.36-12.1,3.89-24.32,7.42-36.53,11l-6.63,1.93h0c-8.33-50.31-14.76-101-26.88-150.6-2.87-10.22-5.4-20.68-10.33-30.09a4.63,4.63,0,0,0-3.44-3.16c-2.61-.66-6,.24-8.52.34q-13.68,2-27.4,4C606.69,594.89,565,600.24,523,599.05c-18.48-1.44-38-2.67-54.34-12.21-4.24-3-9.75-6.48-10-12.19C457.7,564.79,456.13,555,455.41,545.12Zm5.65,49.38c14.58,9.07,31.54,13,48.45,14.78,10.75.84,21.49,1.21,32.22,1.19,46.51-.11,92.84-7.69,138.33-17.14h0c2.3,6.28,4.17,12.68,5.83,19.13,2.21,8.6,4,17.3,5.72,26,1.26,6.4,2.49,12.81,3.82,19.19,7.48,37.52,12.9,75.43,19.42,113.11-23.34,6.56-46.89,12.45-70.7,16.91-14.11,2.28-28.34,4.93-42.68,3.9-33.46-2.11-67-3.52-100.36-6.72-2.6,0-4.23-1.56-5.44-3.53a52.84,52.84,0,0,1-2.73-6c-5.7-16.28-9-33.26-12.35-50.15C472.44,681.86,467.22,638.09,461.06,594.5ZM386.74,1124q-1.64-.87-3.21-1.77a162.35,162.35,0,0,1-23.9-16.54l-1.49-1.26A140.85,140.85,0,0,1,324.63,1063q-2.79-5.35-5.06-11c-.46-1.08-.87-2.18-1.26-3.29a53.62,53.62,0,0,1-2.42-10.29q-.24-1.76-.36-3.51a51.39,51.39,0,0,1,0-7,46.82,46.82,0,0,1,1-6.9,42.58,42.58,0,0,1,5.09-12.89,39.42,39.42,0,0,1,6.66-8.3h0a89.54,89.54,0,0,1,25.84,13.93c9.54,7.16,18.07,15.78,26,24.64.7.78,1.42,1.56,2.11,2.34,23.21,27,41.65,57.71,57.51,89.45C422.31,1137.91,402.88,1132.58,386.74,1124Zm65.54-6h0c-18.91-37.91-41.09-75.07-71.89-104.6a129.32,129.32,0,0,0-12.54-10.52,257.29,257.29,0,0,0-22.34-14.75c1.6-.26,3.2-.44,4.8-.55s3.21-.13,4.81-.08,3.19.18,4.77.37a56.51,56.51,0,0,1,22.45,8c24.89,14.65,43.68,37.2,61,59.9,6.48,9.32,13.85,18.14,19.16,28.22C461.57,1095.87,458.44,1107.72,452.28,1118Zm22.27-46.59h0c-23-33.76-49-66.89-83.87-89.09,3.6-12.08,7.84-23.93,12.34-35.68q2.91-7.62,5.94-15.2a51.74,51.74,0,0,1,10.56,0,57.7,57.7,0,0,1,28.83,11.77c25.27,18.44,42.05,45.52,59.23,71.08C495.13,1032.52,484.52,1051.81,474.55,1071.41Zm38.3-64.14h0c-10.8-21.28-24.19-41.42-41.22-58.22-11.59-11.75-26-21.83-42-25.95-.86-.22-1.73-.4-2.6-.59-.48-.1-1-.23-1.44-.32-.78-.14-1.56-.25-2.34-.36-.59-.09-1.18-.21-1.77-.28a60.71,60.71,0,0,0-7.77-.43c-.22,0-.43,0-.64,0,11.94-29.65,25.54-58.69,41.72-86.27l6.55.95c11.68,1.75,23.35,3.92,34.55,7.63,3.47,1.14,6.9,2.4,10.27,3.88,23.61,9.52,41.73,28.45,57,48.21,9.72,12.9,19.58,25.74,28.29,39.38C560.3,952.79,533.62,978,512.85,1007.27Zm343.91-13.71h0c-13.93-17.49-30.91-32.3-49.44-44.69a73,73,0,0,1,4.36-13.36q1.4-3.22,3.08-6.31a84.21,84.21,0,0,1,7.74-11.72,92.11,92.11,0,0,1,14.84-15c12.72-10.58,27.45-18.53,42.92-24.33,2.21-.82,4.44-1.61,6.68-2.35h0C860.44,908.17,850.15,952.59,856.76,993.56Zm135-102.74c2.6,22.52-5.24,44.52-13.53,65.08-10,24.08-23.32,47.23-41.89,65.73h0c-.4.4-.83.77-1.24,1.16a65.79,65.79,0,0,1-10.76,8.45c-7.29,4.48-15.54,7.14-24.36,6,.27-21.05,4.66-41.84,10-62.14,2.82-10.32,6-20.61,9.74-30.68,6-16.16,13.5-31.73,23.53-45.8,8-11.69,18.51-21.72,31.1-28.22q2.7-1.4,5.53-2.57C986,874,990.82,881.89,991.71,890.82Zm-33-31.38L954.53,863c-9.66,8.25-19,17-26.17,27.55-15,21.72-25.35,45.91-32.65,71.09-.2.7-.4,1.41-.59,2.11-1.25,4.41-2.4,8.85-3.48,13.31q-2.07,8.63-3.75,17.33c-1.81,9.38-3.33,18.8-4.6,28.2a71.82,71.82,0,0,1-3.74-7.17,77.79,77.79,0,0,1-2.91-7.46,108,108,0,0,1-5.06-31.66c-.11-4.48,0-9,.25-13.39,0-.89.06-1.78.12-2.67,0-.39.1-.78.14-1.17,2.5-25.87,11-52,28.2-71.85A79.82,79.82,0,0,1,958.69,859.44Zm-156.21-83.6c2.42-1,5.17-3.07,7.88-3a4.63,4.63,0,0,1,2.67.87,151.33,151.33,0,0,1,29.48,23.38q2.64,2.67,5.19,5.44c3.77,4.11,7.36,8.39,10.83,12.78q3.53,4.49,6.88,9.12c9.29,12.8,17.64,26.35,25.65,39.74a146.32,146.32,0,0,0-15.34,4.47q-3.79,1.32-7.53,2.87c-29.88,12.31-56.32,34.56-67.9,64.86-1,2.53-1.83,5.11-2.58,7.75h0c-16.75-9.5-35.15-15.44-53.27-21.62a22.63,22.63,0,0,1-1.48-3.11,28.21,28.21,0,0,1-1.61-6.62c-.73-5.69-.12-11.69.25-17.26,2.62-25.72,10.41-50.74,21.52-74,1.13-2.25,2.31-4.5,3.55-6.73a139,139,0,0,1,8.14-13C782.21,791.31,791.25,782.1,802.48,775.84Zm-4.08-10.73h0c-11.38,8.65-23,17.34-31.14,29.37-15.37,21.39-25.76,46.14-31.47,71.82-3.7,17.43-6.19,35.48-3.16,53.25-43.44-11.09-90.95-8.94-131.57,10.93h0c-13.19-23.41-28.72-46.36-48.56-64.65a155.7,155.7,0,0,0-21.33-16.58c-20.95-13.51-45.3-20.9-69.9-23.81h0c7.26-9.9,14.83-21,26.57-25.83,28.34,4.57,57.08,6.11,85.73,7.77,18.46.27,37.19,2.8,55.45-1.12,34.14-6.09,68.23-12.7,101.9-21.19,13.78-3.82,27.75-7.24,41.29-11.92a177,177,0,0,0,16.51-6.54A15.23,15.23,0,0,1,798.4,765.11Zm41.52-151.24c-.87.65-1.72,1.31-2.53,2-14.16,10.3-28.72,20.14-43.84,29-7.38-39.2-14.23-78.62-17.34-118.41,12.14-3.79,20.81-13.44,31.2-20.25,5.23,5.29,10.34,10.79,15.06,16.59a124.58,124.58,0,0,1,14.32,21.68,91.52,91.52,0,0,1,4.58,10.31c5.42,14.81,10.78,29.69,15.89,44.63C853,605.5,846,609.33,839.92,613.87Zm66.31-50.13c-14.14,9-26.91,19.91-40.21,30h0c-6.63-18.86-12.29-38.15-21.08-56.14-7-14.61-18.21-26.54-29.34-38.06,25.45-18.26,50.94-36.47,77.58-53h0c12.77,9.59,25.38,20.07,33.6,34,10.48,17.74,13.89,38.42,18.71,58.18C932.37,547.07,919.31,555.45,906.23,563.74Zm95.56-72.54c-12.59,17.05-30,29.62-47.31,41.54h0c-5.11-20.95-8.54-43.17-21-61.34-8-12.14-19.33-21.5-30.53-30.56,8.18-4.77,16.51-9.39,25-13.56,3.11-1.53,6.25-3,9.43-4.4a174.55,174.55,0,0,1,21.9-8c1-.26,2.13-.51,3.23-.73a48.9,48.9,0,0,1,6.08-.87,33.81,33.81,0,0,1,4-.12A19.12,19.12,0,0,1,985,417.75c11.76,9.45,23.34,21.12,26.7,36.4C1015,467.23,1009.41,480.7,1001.79,491.2ZM1087.25,402c-15.25,19.4-36.82,32.37-58.31,43.77a103.07,103.07,0,0,0-5.69-10.93,101.35,101.35,0,0,0-12.9-17.44,89.18,89.18,0,0,0-27.2-20.1c-5.19-30.45-13.84-61.09-10.84-92.21h0c5.42,2.24,11.2,4.77,14.7,9.81a47,47,0,0,1,5.35,11.3c1.18,3.31,2.28,6.67,3.74,9.85,7.25-2.23,13.14-6.54,18.62-11.47,9.15-8.23,17.19-18.18,28.63-23.05,5.53-2.58,12.05-.67,16.62,3.07,7.93,6.34,13.51,15,19.58,23.05,7.53,10.86,17.07,21.14,19.69,34.58,1.86,8.4.31,16.79-3,24.56A69.69,69.69,0,0,1,1087.25,402Z"/><path class="cls-3" d="M484.22,186c26,7.28,51.86,17.27,79.26,17h0c25.35-.25,50.42-5,75.24-9.77q4.57-1,9.16-2.07c12.74-3,25.44-6.49,37.23-12,3-1.42,6-2.92,8.83-4.63,2.16-6,1.78-12.52,2.92-18.73,3-27.17,4.61-56-6.88-81.61a211.85,211.85,0,0,0-41.11-6.74h0c-24.79,3.2-50,2-74.89,5.13-11,1.06-22.13,2.44-33.18,4.34-33.15,5.7-65.63,16.1-92.47,36.81-.24,24.33,11.74,46.6,22.58,67.79C475.06,183.69,479.74,184.61,484.22,186Z"/><path class="cls-4" d="M713,92.56a174.71,174.71,0,0,1,2.69,30.79,295.59,295.59,0,0,1-3.12,41.19h0c11.07-4.71,22.63-8.9,34.7-10,11-.52,19.38,8.06,25.29,16.33,10,15,15.66,32.3,20.37,49.53.71,2.71,1.32,5.45,2,8.18,11.43,46.62,16.6,94.62,18.5,142.52.07,1,.09,1.94.13,2.91.68,17.11-2.36,34.41-2.08,51.5v0c0,2.86.22,5.72.48,8.57,0,.42.06.84.11,1.26A78.54,78.54,0,0,0,815,450a82.74,82.74,0,0,0,3.88-10c4-12.3,5.42-25.33,6.4-38.22l.3-3.9c.31-8.2,6-14.58,11.53-20h0a186.14,186.14,0,0,1-10.59-30.12,174.24,174.24,0,0,1-5.11-59.56c1.1-14.94,8.22-31.07,23.45-36.15h0c-6.09-18.42-12.67-36.67-20.38-54.48-12.86-30-28-60-51.44-83.18-7.51-7.65-16.45-13-25.95-17.41-11.8-5.48-24.47-9.49-36.32-14.6Q712.06,87.47,713,92.56Z"/><path class="cls-5" d="M392.42,389c-5.6-48.5-17.9-96.66-14.63-145.79,1.79-18.52,6-38.15,19-52.22a43.26,43.26,0,0,1,5.25-4.64c13-9.71,30.77-11.73,46.56-9.2h0c-8.8-15.51-13-33.05-16-50.45h0c-1.08,1.06-2.07,2.19-3.12,3.28-22.34,23.07-38.74,51.27-51,80.84-3.82,8.35-6.95,17-9.93,25.67-5,14.47-9.55,29.08-16.35,42.83,8.94,12.55,13.26,27.65,15.57,42.72,3.94,26,4.7,52.76-.7,78.59-.83,5.8-4.81,11.15-4.59,17,9,14.54,19.62,28,29.86,41.75h0C393.9,435.89,395.22,412.3,392.42,389Z"/><path class="cls-6" d="M439.08,513.35c3.49,3.52,9,4.17,12.36,7.91,5.2,5.8,12.6,8.81,19.56,11.92,28.29,12,58.56,19,89.07,22.11,55,5.42,111.86.74,163.47-19.89,33-12.9,63.6-34.75,82.32-65.35-4.63-8.35-8.31-17.29-9.85-26.72-4.73-25.38,3-50.94.27-76.44-4.19-52.89-9.95-106.09-24.67-157.24-.81-2.59-1.65-5.2-2.52-7.78-2.77-8.16-6-16.18-10.78-23.38-2.34-3.41-6.21-7.32-10.39-7.43a7,7,0,0,0-4.24,1.32,461.2,461.2,0,0,1-68.22,29c-27.49,9-55.92,15-84.9,16.5-23.95.74-48.25,1.71-71.8-3.65-25.07-5.15-48.92-15.05-74.19-19.26-11.3-1-24.31-2.26-33.67,5.49-11.25,8.49-14.61,23.18-16.27,36.42-4.61,55,10.89,108.74,15.64,163.13,2.8,26.71-2.31,53.48-1,80.16h0A287.15,287.15,0,0,0,439.08,513.35ZM419.32,404.53c-.36-8.78-3.14-17.18-4.44-25.78-2.46-15.91-4.18-31.88-6.07-47.83-.89-10.64-4.61-20.86-4.79-31.56-.45-11.92-1.43-23.84-.65-35.74.52-10.93-.74-22.13,2.49-32.72,2-7.19,6.23-13.49,9.43-20.16h0c11.32,1.35,23,1.52,33.81,5.51,11.47,4,23.56,5.47,35.53,7.26,29.86,6.45,60.68,6.36,91.1,5.69,26.26.05,51.08-10.19,77.13-11.94a190.48,190.48,0,0,0,26.32-5.83c12-3.46,23.87-7.73,35.71-11.75a37.37,37.37,0,0,0,9.11-4.32c8.51-5.38,15.66-13.16,25.44-16.26,11.9,6.53,14.27,21.67,20.37,32.78,9.63,19.24,7.07,41.44,12.16,61.87,3.56,36.74,2.64,73.77,2.73,110.64.25,14.57-6.47,28.12-6.54,42.68-1,14.27,4.39,27.76,8.54,41.13,2,6.16,3.11,13.94-1.75,19.13h0c-6.67,7.64-17.34,9.32-25.56,14.72-17.87,12.36-38.58,19.62-57.88,29.32-21.17,7.55-44.09,7.69-65.76,13.2-23.32,8-48.11,2.53-72.08,2.26-15.93.16-31-5.71-46.71-7.06-31.47-5.58-56.56-26.7-81.7-44.91-9.46-5.89-13-17.09-14.23-27.58C417.77,446.49,420.82,425.41,419.32,404.53Z"/><path class="cls-2" d="M435.25,494.86c25.14,18.21,50.23,39.33,81.7,44.91,15.75,1.35,30.78,7.22,46.71,7.06,24,.27,48.76,5.71,72.08-2.26,21.67-5.51,44.59-5.65,65.76-13.2,19.3-9.7,40-17,57.88-29.32,8.22-5.4,18.89-7.08,25.56-14.72h0c4.86-5.2,3.72-13,1.75-19.13-4.15-13.38-9.5-26.86-8.54-41.13.07-14.56,6.79-28.12,6.55-42.68-.09-36.87.83-73.9-2.74-110.64-5.08-20.43-2.53-42.63-12.16-61.88-6.09-11.11-8.47-26.25-20.36-32.77-9.78,3.09-16.93,10.87-25.44,16.25a37.37,37.37,0,0,1-9.11,4.32c-11.84,4-23.68,8.29-35.71,11.75a190.51,190.51,0,0,1-26.32,5.84c-26.05,1.74-50.87,12-77.13,11.93-30.42.68-61.25.77-91.11-5.69-12-1.79-24.06-3.27-35.53-7.25-10.82-4-22.49-4.17-33.8-5.51h0c-3.2,6.67-7.39,13-9.43,20.16-3.23,10.59-2,21.79-2.49,32.72-.78,11.9.2,23.82.65,35.74.18,10.7,3.9,20.92,4.79,31.56,1.89,15.95,3.61,31.92,6.07,47.83,1.3,8.6,4.08,17,4.44,25.78,1.5,20.88-1.55,42,1.7,62.75C422.26,477.77,425.79,489,435.25,494.86Z"/><path class="cls-5" d="M839.06,284.47c-.06.36-.13.71-.18,1.07a81.9,81.9,0,0,0-.57,12.93c0,1.77.08,3.51.11,5.21,0,.84,0,1.68,0,2.5,1.4,16.61,3.74,33.31,8.25,49.39,1.42,5.08,3,10.11,4.95,15a37.22,37.22,0,0,0,15.54-35.28c-2.42-23.3-10-45.88-18.39-67.61-5.27,3.61-7.94,8.71-9.27,14.37C839.35,282.87,839.19,283.67,839.06,284.47Z"/><path class="cls-5" d="M353.84,355.51c-1.41-20.78-3.62-42-11.64-61.44h0c-4.13,5.61-9.34,10.2-14.34,15a92.46,92.46,0,0,0-7.14,7.41c-4.46,9.79-.69,20.94,2.53,30.58a282.29,282.29,0,0,0,27.55,52.62h0C354.45,385.26,354.38,370.25,353.84,355.51Z"/><path class="cls-3" d="M1099.24,362.28c-2.62-13.44-12.17-23.73-19.69-34.59-6.07-8-11.65-16.71-19.58-23.05-4.57-3.74-11.09-5.65-16.62-3.07-11.44,4.87-19.48,14.82-28.63,23.05-5.48,4.93-11.37,9.24-18.62,11.47-1.46-3.18-2.56-6.54-3.74-9.85A46.76,46.76,0,0,0,987,315c-3.5-5.05-9.28-7.58-14.7-9.82h0c-3,31.12,5.65,61.76,10.84,92.21a89.18,89.18,0,0,1,27.2,20.1,101.35,101.35,0,0,1,12.9,17.44,103.07,103.07,0,0,1,5.69,10.93c21.49-11.4,43.06-24.37,58.31-43.77a69.69,69.69,0,0,0,9-15.21C1099.54,379.06,1101.09,370.67,1099.24,362.28Z"/><path class="cls-3" d="M227.27,476c-1.63-19.33-3.85-38.64-7-57.77-2-10.78-3.81-21.91-9.57-31.43a15.5,15.5,0,0,0-8.83,5c-5.93,6.68-7.1,17.89-13.48,24.51A17.82,17.82,0,0,1,186.5,418c-6,2.32-11.45,0-16.65-3a111.5,111.5,0,0,0-9.79-5.56C149.6,404,137,408.32,129,416a85.73,85.73,0,0,0-20.24,29.66,128.18,128.18,0,0,0-8.9,35c-1.39,13.75-.23,29.3,9,40.34,8,9.34,21.2,8.38,32.28,9.86,22.3,2.69,44.65.09,66.87-1.57h0c.47-2.77,1-5.51,1.67-8.24A177.66,177.66,0,0,1,227.27,476Z"/><path class="cls-4" d="M1001.79,491.2c7.62-10.5,13.24-24,9.93-37.05-3.36-15.28-15-26.95-26.71-36.4a19.09,19.09,0,0,0-12.32-4.55,33.81,33.81,0,0,0-4,.12,48.9,48.9,0,0,0-6.08.87c-1.1.22-2.18.47-3.23.73a174.55,174.55,0,0,0-21.9,8c-3.18,1.38-6.32,2.87-9.43,4.4-8.54,4.17-16.87,8.79-25,13.56,11.2,9.06,22.49,18.42,30.53,30.56,12.43,18.17,15.86,40.39,21,61.34h0C971.75,520.82,989.2,508.25,1001.79,491.2Z"/><path class="cls-3" d="M945.47,538.81c-4.81-19.76-8.22-40.44-18.7-58.18-8.22-13.94-20.83-24.42-33.6-34h0c-26.64,16.49-52.13,34.7-77.58,53,11.13,11.52,22.29,23.45,29.34,38.06,8.79,18,14.45,37.28,21.08,56.14h0c13.3-10.13,26.07-21,40.2-30C919.31,555.45,932.37,547.07,945.47,538.81Z"/><path class="cls-3" d="M249.9,487.77c-3.75.32-9.15.2-11.29,3.66a6.2,6.2,0,0,0-.7,1.72c-5.69,15.57-10.33,31.72-11.71,48.3-1.1,14,2.67,29.5,13.82,38.84,12.59,11,29.39,14.65,45,19.11h0c1.84-16.76,1.12-33.74,4.17-50.38,2.55-18.15,9.87-35.08,17.51-51.59C288,493.37,269.25,488,249.9,487.77Z"/><path class="cls-3" d="M391.77,523.71c-24.6-9.06-49.8-16.4-75-23.46h0c-2.16,4.83-4.32,9.67-6.37,14.55a175.14,175.14,0,0,0-6.56,18c-4.34,13.61-6.14,27.72-7.09,41.92-.59,8.91-.86,17.86-1.17,26.74,28.85,5.75,58,9.81,86.69,16.53h0C378.78,586.12,385.65,554.73,391.77,523.71Z"/><path class="cls-4" d="M836.79,544.46a124.58,124.58,0,0,0-14.32-21.68c-4.72-5.8-9.83-11.3-15.06-16.59-10.39,6.81-19.06,16.46-31.2,20.25,3.11,39.79,10,79.21,17.34,118.41,15.12-8.84,29.68-18.68,43.84-29,.81-.69,1.66-1.35,2.53-2,6.06-4.54,13-8.38,17.34-14.47-5.11-14.94-10.47-29.82-15.89-44.63A91.52,91.52,0,0,0,836.79,544.46Z"/><path class="cls-4" d="M437.74,539.86c-12.23-4.28-24.42-8.69-36.56-13.13h0c-5.08,26.84-10.29,53.91-9.52,81.28.11,3.92.34,7.83.71,11.76,18.86,4.36,37.84,8.35,56.39,14h0Q443.18,586.81,437.74,539.86Z"/><path class="cls-3" d="M468.63,586.84c16.38,9.54,35.86,10.77,54.35,12.21,42,1.19,83.71-4.16,125.22-10.22q13.71-2,27.4-4c2.53-.1,5.91-1,8.52-.34a4.63,4.63,0,0,1,3.44,3.16c4.93,9.41,7.46,19.87,10.33,30.09C710,667.28,716.44,718,724.77,768.31h0l6.63-1.93c12.21-3.54,24.43-7.07,36.53-11,2.44-.78,4.89-1.54,7.31-2.36,4.62-4,8.74-9.12,9.46-15.39,4.9-25.88,2.17-53-5.87-77.94-.76-11-3.86-21.55-5.87-32.3-5.51-29.91-9.7-60-13.08-90.19h0a238.79,238.79,0,0,1-53.94,22.22,332.21,332.21,0,0,1-34.23,7.66q-8.9,1.61-17.83,2.73c-11.93,1.5-23.9,2.39-35.9,2.76q-9,.28-18,.18a584.76,584.76,0,0,1-71.83-5.51c-25.16-3.49-50.54-9.3-72.72-22.16h0c.72,9.87,2.29,19.67,3.25,29.52C458.89,580.36,464.4,583.81,468.63,586.84Z"/><path class="cls-4" d="M480.59,725.17c3.32,16.89,6.66,33.87,12.35,50.15a52.84,52.84,0,0,0,2.73,6c1.21,2,2.84,3.49,5.44,3.53,33.38,3.2,66.9,4.61,100.36,6.72,14.34,1,28.57-1.62,42.68-3.9,23.81-4.46,47.36-10.35,70.7-16.91-6.52-37.68-11.94-75.59-19.42-113.11-1.33-6.38-2.56-12.79-3.82-19.19-1.71-8.72-3.51-17.42-5.72-26-1.66-6.45-3.53-12.85-5.83-19.13h0c-45.49,9.45-91.82,17-138.33,17.14-10.73,0-21.47-.35-32.22-1.19-16.91-1.75-33.87-5.71-48.45-14.78C467.22,638.09,472.44,681.86,480.59,725.17Zm175.16-9.08a37,37,0,0,1-13,2.86c-5.77.1-11.27-1.67-14.46-7-3.36-7.42-2.9-16.59.64-24.15a26.22,26.22,0,0,1,9.51-11.15l3-1,.33-.12h0c6.16,2.83,12.55,5.4,18.48,8.79C670.72,692.32,668.09,711.25,655.75,716.09ZM629.16,618a11.45,11.45,0,0,1,2.89-.54c6.48-.3,11.26,5.61,15.75,9.9,4.82,5.11,6.68,13.33,3.52,19.78a11,11,0,0,1-3,3.74c-3.68,3-9,3.8-13.54,4.62-7,1.28-15-2.33-17.34-9.34a25.5,25.5,0,0,1,.5-15.35C619.84,625.24,623.62,620.36,629.16,618ZM485.59,644.88h0c4.32-3.86,7.37,2.06,11,4,13.87.9,27.38-3,41-5.28,3.29-.47,6.61-.88,9.94-1.23a134.14,134.14,0,0,1,26.95-.46c6.19,3.75,7,12,9.08,18.4a519.86,519.86,0,0,1,11.6,89.54c1,6.79-2.78,13.08-8.33,16.68a20.33,20.33,0,0,1-2.63,1.44c-14.13,6.63-30.17,6-45.4,5.83-9.46-.58-19.36-.87-28.1-4.88-3.69-5.43-4.88-12-6.54-18.24-7.23-31.52-12.27-63.46-18.91-95.12-.41-3.08-1.85-6.6-.4-9.47l0-.06A5.39,5.39,0,0,1,485.59,644.88Z"/><path class="cls-7" d="M617.42,646.18c2.31,7,10.3,10.62,17.34,9.34,4.5-.82,9.86-1.66,13.54-4.62a10.84,10.84,0,0,0,3-3.74c3.16-6.45,1.31-14.67-3.51-19.78-4.49-4.29-9.27-10.2-15.75-9.9a11.45,11.45,0,0,0-2.89.54c-5.54,2.34-9.32,7.22-11.24,12.81A25.5,25.5,0,0,0,617.42,646.18Zm13.13-18.64c3.57,2.2,7.34,4.5,9.89,7.72a13.64,13.64,0,0,1,2.95,7c-3.15,1.12-7.21,3.91-10.69,4.16-2.09.15-4-.62-5.33-3.19C625.2,637.77,628.47,632.35,630.55,627.54Z"/><path class="cls-8" d="M632.7,646.37c3.48-.25,7.54-3,10.69-4.16a13.72,13.72,0,0,0-2.95-7c-2.55-3.22-6.32-5.52-9.89-7.72-2.08,4.81-5.35,10.23-3.18,15.64C628.73,645.75,630.61,646.52,632.7,646.37Z"/><path class="cls-9" d="M485.18,655.54c6.64,31.66,11.68,63.6,18.91,95.12,1.66,6.2,2.85,12.81,6.54,18.24,8.74,4,18.64,4.3,28.1,4.88,15.23.22,31.27.8,45.4-5.83a20.33,20.33,0,0,0,2.63-1.44c5.55-3.6,9.36-9.89,8.33-16.68a518.9,518.9,0,0,0-11.61-89.54c-2.06-6.38-2.89-14.65-9.07-18.39a133.41,133.41,0,0,0-26.95.45c-3.33.35-6.65.76-9.94,1.23-13.58,2.24-27.09,6.18-41,5.29-3.6-1.93-6.65-7.84-11-4h0a5.39,5.39,0,0,0-.77,1.13l0,.06C483.33,648.94,484.77,652.46,485.18,655.54Zm29.94,2.55c18.67-1.94,37.26-4.58,56-6a833.8,833.8,0,0,1,13.55,97.67,7.3,7.3,0,0,1,.11,2.44c-.64,5.28-7.3,7.6-12,8.85-17.79,4.1-36.22,2.69-54.26,1.39-7.86-25.14-12.46-51.07-17.2-76.94-1.58-8.62-3.17-17.24-4.91-25.82C502.67,659.31,508.9,658.74,515.12,658.09Z"/><path class="cls-3" d="M518.54,762.48c18,1.31,36.47,2.72,54.26-1.38,4.68-1.26,11.34-3.57,12-8.85a7.3,7.3,0,0,0-.11-2.44,833.8,833.8,0,0,0-13.55-97.67c-18.74,1.37-37.33,4-56,6-6.22.65-12.45,1.22-18.69,1.64,1.74,8.58,3.33,17.2,4.91,25.82C506.08,711.42,510.68,737.35,518.54,762.48Z"/><path class="cls-2" d="M641.77,675.55l-.33.11-3,1A26.22,26.22,0,0,0,629,687.82c-3.54,7.56-4,16.73-.64,24.15,3.19,5.31,8.7,7.08,14.46,7a37,37,0,0,0,13-2.86c12.34-4.84,15-23.77,4.5-31.76-5.93-3.39-12.32-6-18.48-8.79Zm-7.57,22.51a6.25,6.25,0,0,1,.61-4.85c1.29-2.36,3.77-4.29,5.44-6.37,2.08,2.46,4.14,5,6.25,7.52q4.44-1.11,9-2.08h0c1.76,5.89,1.92,14.14-5.14,16.56a13.29,13.29,0,0,1-2.6,0A16.7,16.7,0,0,1,634.2,698.06Z"/><path class="cls-6" d="M634.2,698.06a16.7,16.7,0,0,0,13.57,10.8,13.29,13.29,0,0,0,2.6,0c7.06-2.42,6.9-10.67,5.14-16.56h0c-3,.65-6,1.35-9,2.08h0c-2.11-2.55-4.17-5.06-6.25-7.52-1.67,2.08-4.15,4-5.44,6.37A6.25,6.25,0,0,0,634.2,698.06Z"/><path class="cls-3" d="M788.73,766.61a177,177,0,0,1-16.51,6.54c-13.54,4.68-27.51,8.1-41.28,11.92-33.67,8.49-67.77,15.1-101.91,21.19-18.26,3.92-37,1.39-55.44,1.12-28.66-1.65-57.4-3.2-85.74-7.77-11.74,4.79-19.31,15.93-26.56,25.83h0c24.6,2.91,49,10.3,69.9,23.81a155.7,155.7,0,0,1,21.33,16.58c19.84,18.29,35.37,41.24,48.56,64.65h0c40.62-19.87,88.13-22,131.57-10.93-3-17.77-.54-35.82,3.16-53.25,5.71-25.68,16.1-50.43,31.47-71.82,8.11-12,19.76-20.72,31.14-29.37h0A15.22,15.22,0,0,0,788.73,766.61Z"/><path class="cls-3" d="M774.81,801.75a139,139,0,0,0-8.14,13c-1.24,2.23-2.42,4.48-3.54,6.73-11.12,23.28-18.91,48.3-21.53,74-.37,5.57-1,11.57-.25,17.26a28.21,28.21,0,0,0,1.61,6.62,22.63,22.63,0,0,0,1.48,3.11c18.13,6.18,36.52,12.12,53.27,21.62h0c.75-2.64,1.62-5.22,2.58-7.75,11.58-30.3,38-52.55,67.9-64.86q3.73-1.54,7.53-2.87a146.32,146.32,0,0,1,15.34-4.47c-8-13.39-16.36-26.94-25.65-39.74q-3.35-4.63-6.88-9.12c-3.47-4.39-7.06-8.67-10.83-12.78q-2.55-2.78-5.19-5.44A151.33,151.33,0,0,0,813,773.69a4.63,4.63,0,0,0-2.67-.87c-2.71-.05-5.46,2-7.88,3C791.25,782.1,782.21,791.31,774.81,801.75Z"/><path class="cls-3" d="M591.48,934.89c-8.71-13.64-18.57-26.48-28.29-39.38-15.3-19.76-33.43-38.69-57-48.21-3.36-1.48-6.79-2.74-10.26-3.88-11.2-3.71-22.87-5.88-34.55-7.63l-6.55-.95c-16.18,27.58-29.78,56.62-41.72,86.27.21,0,.42,0,.64,0a60.71,60.71,0,0,1,7.77.43c.59.07,1.18.19,1.77.28.78.11,1.56.22,2.34.36.48.09,1,.22,1.44.32.87.19,1.74.37,2.6.59,16,4.12,30.41,14.2,42,25.95,17,16.8,30.42,36.94,41.22,58.22h0C533.62,978,560.3,952.79,591.48,934.89Z"/><path class="cls-5" d="M872,960.2c-.06.89-.07,1.78-.12,2.67-.23,4.44-.36,8.91-.25,13.39a108,108,0,0,0,5.06,31.66,77.79,77.79,0,0,0,2.91,7.46,71.82,71.82,0,0,0,3.74,7.17c1.27-9.4,2.79-18.82,4.6-28.2q1.7-8.7,3.75-17.33c1.08-4.46,2.23-8.9,3.48-13.31.19-.7.39-1.41.59-2.11,7.3-25.18,17.64-49.37,32.65-71.09,7.17-10.58,16.51-19.3,26.17-27.55l4.16-3.52a79.82,79.82,0,0,0-58.4,27.74c-17.21,19.88-25.7,46-28.2,71.85C872.05,959.42,872,959.81,872,960.2Z"/><path class="cls-4" d="M991.71,890.83c-.89-8.94-5.75-16.78-11.92-23q-2.82,1.17-5.52,2.56c-12.59,6.5-23.12,16.53-31.1,28.22-10,14.07-17.53,29.64-23.53,45.8-3.75,10.07-6.92,20.36-9.74,30.68-5.31,20.3-9.7,41.09-10,62.14,8.82,1.18,17.07-1.48,24.36-6a65.79,65.79,0,0,0,10.76-8.45c.41-.39.84-.76,1.24-1.16h0c18.57-18.5,31.9-41.64,41.89-65.72C986.47,935.34,994.31,913.34,991.71,890.83Z"/><path class="cls-5" d="M886.94,875.84c-2.24.74-4.47,1.53-6.68,2.35-15.47,5.8-30.2,13.75-42.92,24.33a92.11,92.11,0,0,0-14.84,15,84.21,84.21,0,0,0-7.74,11.72q-1.68,3.09-3.08,6.31a73,73,0,0,0-4.36,13.36c18.53,12.39,35.51,27.2,49.44,44.69h0c-6.61-41,3.68-85.39,30.18-117.72Z"/><path class="cls-4" d="M448.33,943.25a57.63,57.63,0,0,0-28.82-11.77,51.74,51.74,0,0,0-10.56,0q-3,7.57-5.94,15.2c-4.5,11.75-8.74,23.6-12.34,35.68,34.83,22.2,60.86,55.33,83.87,89.09h0c10-19.6,20.59-38.88,33-57.07C490.38,988.77,473.6,961.69,448.33,943.25Z"/><path class="cls-6" d="M443.29,1055.75c-17.27-22.69-36.06-45.25-61-59.9a56.51,56.51,0,0,0-22.45-8c-1.58-.19-3.18-.32-4.77-.37s-3.2,0-4.81.08-3.2.29-4.8.55a257.29,257.29,0,0,1,22.34,14.75,129.32,129.32,0,0,1,12.54,10.52c30.8,29.53,53,66.69,71.89,104.6h0c6.15-10.28,9.29-22.13,10.16-34C457.14,1073.9,449.77,1065.07,443.29,1055.75Z"/><path class="cls-4" d="M439.78,1130.19c-15.86-31.74-34.3-62.48-57.51-89.45-.69-.78-1.41-1.56-2.11-2.34-8-8.86-16.48-17.48-26-24.64a89.54,89.54,0,0,0-25.84-13.93h0a39.42,39.42,0,0,0-6.66,8.3,42.58,42.58,0,0,0-5.09,12.89,45.53,45.53,0,0,0-1,6.9,51.39,51.39,0,0,0,0,7q.12,1.75.36,3.51a53.62,53.62,0,0,0,2.42,10.29c.39,1.11.8,2.21,1.26,3.29q2.26,5.63,5.06,11a140.85,140.85,0,0,0,33.51,41.43l1.49,1.26a162.35,162.35,0,0,0,23.9,16.54q1.58.9,3.21,1.77C402.88,1132.58,422.31,1137.91,439.78,1130.19Z"/></svg>